# xmcd
#
# Track frame offsets:
#	150
#	22197
#	43091
#	62319
#	87315
#	106904
#	138410
#	165786
#	184301
#	204707
#	232354
#
# Disc length: 3491 seconds
#
# Revision: 10
# Processed by: cddbd v1.5.2PL0 Copyright (c) Steve Scherf et al.
# Submitted via: Jack! The Knife 20 Magnifico
#
DISCID=960da10b
DTITLE=Stratovarius - Nemesis
DYEAR=2013
DGENRE=Metal
TTITLE0=Abandon
TTITLE1=Unbreakable
TTITLE2=Stand My Ground
TTITLE3=Halcyon Days
TTITLE4=Fantasy
TTITLE5=Out Of The Fog
TTITLE6=Castles In The Air
TTITLE7=Dragons
TTITLE8=One Must Fall
TTITLE9=If The Story Is Over
TTITLE10=Nemesis
EXTD=Matias Kupiainen
EXTT0=Matias Kupiainen
EXTT1=Matias Kupiainen
EXTT2=Matias Kupiainen
EXTT3=Matias Kupiainen
EXTT4=Lauri Porra
EXTT5=Kotipelto, Liimatainen, Kupiainen
EXTT6=Jens Johansson
EXTT7=Jens Johansson
EXTT8=Matias Kupiainen
EXTT9=Liimatainen, Kotipelto
EXTT10=Matias Kupiainen
PLAYORDER=
